<svg width="295" height="66" viewBox="0 0 295 66" fill="none" xmlns="http://www.w3.org/2000/svg">
<path fill-rule="evenodd" clip-rule="evenodd" d="M35.9736 32.1665C35.3573 33.7859 34.5013 35.299 33.4354 36.6528C34.0995 37.3654 34.8289 38.0114 35.6135 38.582C36.0538 38.8818 36.5114 39.1545 36.9836 39.3985C39.5582 40.6586 42.4324 41.1381 45.2656 40.7803C44.8033 39.3126 44.0666 37.9505 43.0963 36.7695C41.2529 34.5178 38.7598 32.9192 35.9736 32.2024M9.62574 12.1124C9.96826 11.8611 10.3284 11.6278 10.6884 11.4035C12.6602 10.2 14.8471 9.41032 17.1212 9.08062C19.3953 8.75092 21.7109 8.88783 23.9326 9.48335C27.2409 10.4075 30.2136 12.2971 32.4869 14.9208C32.9694 14.5198 33.477 14.1511 34.0063 13.8172C36.3975 12.2788 39.1933 11.5272 42.016 11.6637C43.8922 11.7974 45.7057 12.4095 47.2906 13.4441C48.8755 14.4786 50.1812 15.9026 51.0884 17.5857C52.3414 19.8774 52.7318 22.5578 52.1863 25.1229C51.9525 26.166 51.5001 27.145 50.8602 27.9923C50.2204 28.8397 49.4083 29.5352 48.48 30.031C46.7884 30.8996 44.8402 31.0916 43.0172 30.5693C42.1181 30.346 41.2952 29.8774 40.6363 29.2137C39.9774 28.5501 39.5072 27.7161 39.2758 26.8008C39.0714 26.0336 39.0702 25.2247 39.2724 24.4568C39.4745 23.689 39.8728 22.9899 40.4264 22.431C40.9036 22.0155 41.4768 21.7315 42.0916 21.6059C42.7064 21.4802 43.3425 21.5172 43.9394 21.7132L44.8177 21.9555L44.3434 23.75L43.4651 23.5078C43.1549 23.3896 42.8199 23.3564 42.4932 23.4115C42.1666 23.4666 41.8598 23.608 41.6032 23.8218C41.2814 24.1666 41.0549 24.5925 40.9469 25.0559C40.8389 25.5194 40.8533 26.0038 40.9884 26.4598C41.1447 27.0609 41.4589 27.6068 41.8969 28.0386C42.335 28.4703 42.8804 28.7715 43.4739 28.9094C44.8672 29.3117 46.357 29.171 47.6544 28.5146C48.3542 28.1362 48.9655 27.6074 49.4461 26.9646C49.9267 26.3218 50.2653 25.5802 50.4385 24.7909C50.8883 22.6513 50.5572 20.4175 49.5076 18.5099C48.7584 17.0839 47.6697 15.8736 46.342 14.9907C45.0142 14.1078 43.4903 13.5808 41.9106 13.4583C39.4542 13.3388 37.0208 13.9901 34.9372 15.3246C34.4757 15.6189 34.0328 15.9425 33.611 16.2937C36.0161 19.4317 37.2351 23.3493 37.0451 27.3302C36.9753 28.3802 36.8016 29.4204 36.5269 30.4347C39.6197 31.2649 42.3825 33.0588 44.4312 35.5671C45.5974 37.0056 46.4695 38.6685 46.9958 40.4573C50.0288 39.8351 52.8185 38.3228 55.0231 36.1055C56.4762 34.6118 57.6231 32.837 58.3967 30.885C59.1704 28.9329 59.5551 26.8428 59.5285 24.737C59.388 17.7114 54.9089 11.1613 49.3583 7.30297C40.9972 1.50658 31.0114 0.483683 21.4998 3.71387C18.4259 4.7906 12.1024 8.97191 9.61696 12.0765L9.62574 12.1124ZM34.7879 30.0579C35.0446 29.1198 35.2094 28.158 35.2797 27.1866C35.3149 26.6488 35.3149 26.1093 35.2797 25.5715C35.0572 22.6648 34.024 19.8841 32.3024 17.5588C31.294 18.7045 30.5073 20.035 29.9838 21.4799C29.0004 24.2377 28.8898 27.2414 29.6677 30.0668C31.3612 29.7958 33.0856 29.7958 34.7791 30.0668L34.7879 30.0579ZM32.2497 35.271C33.0438 34.2077 33.6992 33.0435 34.1995 31.8076C32.9021 31.6371 31.5886 31.6371 30.2912 31.8076C30.7878 33.0481 31.4434 34.2158 32.241 35.28L32.2497 35.271ZM16.16 20.9685C14.1154 21.6374 12.3814 23.0482 11.2857 24.9344C10.4659 26.3151 9.99846 27.8839 9.92634 29.4971C9.85422 31.1103 10.1797 32.7161 10.8729 34.1674C11.998 36.3992 13.7628 38.2273 15.9317 39.4075C16.4081 39.6706 16.901 39.9014 17.4071 40.0984C18.8694 36.4 21.5844 33.3619 25.0568 31.5384C25.9715 31.0804 26.9274 30.7138 27.9111 30.4437C27.0596 27.2833 27.1947 23.9301 28.2976 20.8518C28.9388 19.1028 29.9186 17.5037 31.1783 16.1501C29.1475 13.7797 26.4871 12.0623 23.5198 11.2061C21.5264 10.6724 19.4489 10.5499 17.4087 10.8457C15.3684 11.1414 13.4063 11.8496 11.637 12.9289C5.75261 16.5718 2.44157 23.8128 1.97609 30.6501C1.23835 40.9418 5.36618 50.2914 12.8753 57.0748C15.3169 59.2821 22.0707 62.7994 25.8999 63.4275C25.5135 63.2481 25.1358 63.0597 24.767 62.8533C22.7592 61.7096 20.9949 60.1682 19.5773 58.3194C18.1597 56.4706 17.1174 54.3514 16.5113 52.086C15.6455 48.6977 15.7614 45.1254 16.845 41.8032C13.5835 40.5686 10.886 38.142 9.27444 34.9929C8.45102 33.2662 8.06459 31.3562 8.15051 29.4375C8.23643 27.5189 8.79196 25.6528 9.76626 24.0102C11.0769 21.738 13.1582 20.0362 15.6155 19.2278C16.6172 18.9139 17.6735 18.8252 18.712 18.9676C19.7504 19.1101 20.7464 19.4805 21.6316 20.0533C23.2105 21.1186 24.3441 22.747 24.8109 24.6204C25.0717 25.5236 25.0894 26.4819 24.8622 27.3946C24.635 28.3072 24.1713 29.1405 23.5198 29.8066C22.9662 30.3822 22.2721 30.7963 21.5094 31.0061C20.7466 31.2159 19.9429 31.2138 19.1812 31C18.5862 30.7875 18.0551 30.4213 17.6396 29.937C17.2241 29.4528 16.9382 28.8669 16.8099 28.2364L16.5904 27.3391L18.3469 26.8815L18.5752 27.7788C18.6317 28.1112 18.7713 28.4231 18.9806 28.6841C19.1899 28.9451 19.4617 29.1463 19.7697 29.2683C20.2232 29.3761 20.6965 29.3617 21.143 29.2264C21.5895 29.0912 21.9939 28.8397 22.3166 28.4966C22.7464 28.0561 23.0504 27.5041 23.1959 26.9001C23.3414 26.2961 23.3228 25.663 23.1422 25.069C22.7923 23.6189 21.9206 22.3567 20.7006 21.5338C20.0294 21.1082 19.2755 20.8371 18.4913 20.7395C17.7072 20.6419 16.9116 20.72 16.16 20.9685ZM31.0465 36.6798C29.9796 35.325 29.1207 33.8123 28.4996 32.1934C27.5923 32.439 26.71 32.7725 25.8648 33.1894C25.39 33.4272 24.9296 33.6939 24.4859 33.9879C22.118 35.6275 20.259 37.9253 19.1285 40.6098C20.6018 40.9358 22.123 40.9663 23.6077 40.6996C26.4406 40.1959 29.0447 38.7887 31.0465 36.6798ZM30.1068 53.1986C31.6905 54.6743 33.7511 55.5017 35.8945 55.5225C37.4748 55.5597 39.0389 55.1905 40.4431 54.4489C41.8472 53.7073 43.0465 52.6171 43.9306 51.2784C45.2656 49.169 45.934 46.6913 45.8452 44.181C45.8282 43.6277 45.7754 43.0762 45.6871 42.53C41.8232 43.0863 37.8923 42.2041 34.6123 40.0445C33.7585 39.4567 32.9641 38.7834 32.241 38.0346C29.9943 40.3844 27.0819 41.9537 23.915 42.521C22.1136 42.8406 20.2676 42.7857 18.4874 42.3595C17.5055 45.3523 17.3927 48.5715 18.1624 51.6284C18.7085 53.6587 19.6442 55.5579 20.9153 57.2153C22.1863 58.8728 23.7673 60.2555 25.5662 61.2831C31.5911 64.603 39.39 63.948 45.4764 61.0139C54.5664 56.5275 60.4068 48.1918 62.4268 38.1513C63.0767 34.8852 62.6815 27.1597 61.3026 23.4539C61.3026 23.8846 61.3641 24.3512 61.3729 24.746C61.4085 27.092 60.9856 29.4218 60.129 31.5988C59.2724 33.7758 57.9994 35.7563 56.3844 37.4245C53.9403 39.8871 50.8501 41.5732 47.4876 42.2788C47.5938 42.9045 47.6554 43.5372 47.672 44.172C47.7689 47.0581 46.9964 49.9051 45.4588 52.3282C44.4091 53.9227 42.9838 55.2218 41.3141 56.1061C39.6443 56.9905 37.7836 57.4316 35.9033 57.3889C33.3205 57.3574 30.839 56.358 28.9299 54.5804C28.1627 53.8521 27.5596 52.9621 27.1622 51.9721C26.7649 50.9821 26.5829 49.9158 26.6289 48.8468C26.7381 46.9175 27.5494 45.0996 28.9036 43.7503C29.542 43.0676 30.3491 42.5737 31.2395 42.321C32.13 42.0683 33.0708 42.0661 33.9624 42.3147C34.7287 42.5169 35.4283 42.9247 35.9888 43.4957C36.5493 44.0667 36.9503 44.7804 37.1504 45.5628C37.2653 46.1946 37.219 46.846 37.016 47.4541C36.8129 48.0623 36.46 48.6069 35.9911 49.0352L35.3588 49.6723L34.059 48.3174L34.7001 47.6714C34.952 47.4557 35.1451 47.1771 35.2605 46.8626C35.3759 46.5482 35.4098 46.2086 35.3588 45.8768C35.2263 45.4203 34.9777 45.0079 34.6382 44.6816C34.2988 44.3553 33.8807 44.1268 33.4266 44.0195C32.8386 43.8565 32.2181 43.8615 31.6328 44.034C31.0474 44.2064 30.5196 44.5397 30.1068 44.9975C29.0712 46.0261 28.4454 47.4103 28.3503 48.8827C28.3191 49.6892 28.46 50.493 28.7633 51.2383C29.0667 51.9835 29.5251 52.6525 30.1068 53.1986ZM0 33.0458C0.0322187 39.8515 2.11093 46.4826 5.95461 52.0411C7.01098 53.5964 8.21091 55.0447 9.53792 56.366C9.9507 56.7428 10.3371 57.2633 11.0485 57.8644C11.2769 58.0618 11.3647 58.0798 11.593 58.2772C15.6428 61.8006 20.4971 64.2232 25.7067 65.3208C29.5798 66.2181 31.8545 66.0296 35.7013 65.8502C39.0002 65.4363 42.2223 64.5325 45.2656 63.1673C47.0715 62.3893 48.7884 61.4114 50.3858 60.2512L55.2338 56.1237L55.6905 55.6123L56.6478 54.5355L57.9213 52.9384C59.8286 50.3915 61.3449 47.5625 62.418 44.5489C63.1423 42.5435 63.6833 40.4739 64.034 38.3666C64.4374 35.9674 64.5583 33.5274 64.3941 31.0987C64.1101 26.1139 62.7291 21.2588 60.3541 16.8948L58.8259 14.3556C58.5449 13.9518 58.2902 13.557 57.9477 13.1353C57.6051 12.7135 57.4207 12.4354 57.0694 12.0316L56.1384 10.919C54.5586 9.15786 52.811 7.56181 50.9216 6.15446L49.7359 5.32897C48.9493 4.78729 48.1342 4.29005 47.2944 3.83949C46.8289 3.59723 46.4951 3.44469 46.0209 3.20243C43.7564 2.04532 41.3528 1.1976 38.8718 0.681084C32.0358 -0.749594 24.9313 0.0865784 18.5928 3.06784C16.8519 3.91069 15.1832 4.90116 13.6043 6.02884C13.1651 6.33392 12.8577 6.62105 12.4537 6.92612C10.9883 8.06599 9.63783 9.35248 8.42253 10.7665C8.10635 11.1254 7.80774 11.4215 7.54426 11.7894C5.15671 14.7567 3.27712 18.1149 1.98487 21.7222C1.818 22.2336 1.65113 22.6733 1.51939 23.1578C0.877743 25.238 0.439398 27.378 0.210782 29.5464L0.0790436 32.2383C0.0790436 32.4087 0.0790436 32.4805 0.0790436 32.5882C0.0317111 32.7362 0.00509964 32.8902 0 33.0458Z" fill="#F78D1E"/>
<path fill-rule="evenodd" clip-rule="evenodd" d="M283.973 41.9448H279.161V24.1436C283.636 24.1436 286.603 23.5663 289.345 26.501C292.552 29.933 292.328 41.9448 283.908 41.9448M276.355 44.5909C283.363 44.5909 290.195 45.7616 293.226 38.577C295.07 34.2309 294.397 26.902 290.708 23.9351C287.02 20.9682 281.856 21.5135 276.355 21.5135V44.5909Z" fill="#F78D1E"/>
<path fill-rule="evenodd" clip-rule="evenodd" d="M189.227 31.4725H187.415V23.9671L189.772 24.0633C192.98 24.352 193.316 25.4265 193.316 28.4415C193.316 30.7348 191.44 31.4725 189.227 31.4725ZM184.672 44.5908H187.431V33.6856C188.265 33.862 188.409 34.2309 189.868 36.1874C190.574 37.1336 191.151 37.9675 191.857 38.8977C193.301 40.6912 194.635 42.571 195.85 44.5267H199.475C197.871 42.0891 191.985 34.9044 191.312 33.6696C192.051 33.6396 192.776 33.4605 193.445 33.1429C194.113 32.8253 194.71 32.3758 195.2 31.8214C195.69 31.2671 196.062 30.6194 196.295 29.9173C196.528 29.2151 196.617 28.4731 196.556 27.7358C196.556 20.7918 189.644 21.4493 184.672 21.4493V44.5908Z" fill="#F78D1E"/>
<path fill-rule="evenodd" clip-rule="evenodd" d="M219.039 35.2891L222.551 27.4951L226.063 35.2891H219.039ZM229.928 44.6227H233.135L222.551 21.6255L211.95 44.5906H215.158L217.74 38.3362H227.362L229.928 44.6227Z" fill="#F78D1E"/>
<path fill-rule="evenodd" clip-rule="evenodd" d="M248.547 21.5134H251.723V41.3193H259.164V44.5588H251.723V44.5908H248.547V21.5134Z" fill="#F78D1E"/>
<path fill-rule="evenodd" clip-rule="evenodd" d="M156.943 21.6255V21.6576H165.731V24.881H156.943V30.0931H165.731V33.3165H156.943V41.4313H165.731V44.6708H156.943V44.6869H153.768V21.6255H156.943Z" fill="#F78D1E"/>
<path fill-rule="evenodd" clip-rule="evenodd" d="M123.506 38.8172L132.711 21.0962L135.71 44.4142L132.551 44.7991L131.011 29.7402L123.506 44.334L116.674 29.9808L115.07 44.6868L111.911 44.3019L114.91 21L123.506 38.8172Z" fill="#F78D1E"/>
<path fill-rule="evenodd" clip-rule="evenodd" d="M86.0752 21.6255V21.6576H94.8475V24.881H86.0752V30.0931H94.8475V33.3165H86.0752V41.4313H94.8475V44.6708H86.0752V44.6869H82.8838V21.6255H86.0752Z" fill="#F78D1E"/>
</svg>
