<svg xmlns="http://www.w3.org/2000/svg" width="212" height="67" viewBox="0 0 212 67" fill="none">
  <path fill-rule="evenodd" clip-rule="evenodd" d="M37.194 32.6814C36.5595 34.3187 35.6795 35.8332 34.5947 37.1943C35.2701 37.8799 36.0172 38.5041 36.8256 39.0567C37.2759 39.3637 37.7364 39.6298 38.2276 39.8754C40.7859 41.1546 43.774 41.5741 46.711 41.2671C46.2403 39.814 45.4932 38.453 44.4904 37.2557C42.5665 34.9429 39.9877 33.4182 37.194 32.6916M10.1985 12.5933C10.5464 12.3477 10.9148 12.1124 11.2832 11.8872C15.3356 9.43123 20.2681 8.78653 24.8526 9.96336C28.2296 10.823 31.2894 12.8389 33.6123 15.4075C34.1035 15.0084 34.6152 14.64 35.1678 14.3023C37.6033 12.798 40.5198 11.9998 43.3852 12.1738C47.2841 12.4091 50.7941 14.7014 52.677 18.0886C53.9562 20.3911 54.386 23.0825 53.8027 25.6613V25.692C53.2603 27.8205 51.9812 29.5909 50.0061 30.5938C48.2972 31.4636 46.2607 31.6376 44.4085 31.1259C42.5256 30.604 41.052 29.2737 40.571 27.36C40.1821 25.8148 40.5301 24.0137 41.7581 22.9188C42.7712 22.0182 44.0913 21.8545 45.3704 22.2024L46.2505 22.448L45.7593 24.1979L44.8792 23.9523C44.2141 23.7681 43.508 23.7886 42.9758 24.2696C42.2697 24.904 42.1265 26.0297 42.3516 26.9098C42.6688 28.1889 43.6615 29.0178 44.8997 29.3658C46.3119 29.7546 47.8674 29.6318 49.1772 28.9667C50.6815 28.1992 51.6128 26.8586 52.0323 25.2417C52.5133 23.103 52.1449 20.8721 51.0806 18.9585C49.5047 16.1136 46.5473 14.1693 43.2828 13.9748C40.7961 13.8213 38.248 14.5274 36.14 15.8271C35.6692 16.1238 35.219 16.4411 34.7892 16.789C37.1531 19.9409 38.596 23.8602 38.3094 27.8308C38.2276 28.8848 38.0536 29.9286 37.7773 30.9315C40.8882 31.7604 43.7638 33.4796 45.9128 36.0686C47.1203 37.5217 48.0106 39.1795 48.5428 40.9499C51.6639 40.2847 54.6111 38.7907 56.7601 36.6007C59.7278 33.5819 61.447 29.4681 61.3549 25.2315C61.2014 18.2012 56.6169 11.6519 50.9271 7.80413C42.3516 2.0223 32.1285 0.998964 22.3864 4.25316C19.2243 5.3072 12.7159 9.52333 10.2087 12.5933H10.1985ZM35.9762 30.5835C36.2321 29.6523 36.406 28.6904 36.4777 27.7182C36.5186 27.1758 36.5186 26.6437 36.4879 26.1013C36.3242 23.2565 35.1883 20.4628 33.4486 18.0784C32.4253 19.2143 31.6168 20.5344 31.0745 21.9978C30.0307 24.8119 29.9897 27.8103 30.7572 30.5835C32.4867 30.3175 34.257 30.3175 35.9762 30.5835ZM33.3667 35.8025C34.1752 34.7485 34.8506 33.5819 35.3622 32.3334C34.0421 32.1595 32.6913 32.1595 31.3508 32.3334C31.8624 33.5614 32.5378 34.728 33.3565 35.7923L33.3667 35.8025ZM16.9013 21.4861C14.8035 22.141 13.0536 23.5737 11.9177 25.4464C10.2292 28.2299 10.0245 31.7501 11.4879 34.6769C12.6033 36.9077 14.476 38.7497 16.6659 39.9266C17.1571 40.1926 17.6586 40.4178 18.1805 40.6122C19.7359 36.9896 22.4171 33.7866 26.009 32.0571C26.9607 31.5966 27.9533 31.2385 28.9664 30.9622C28.1273 27.8615 28.1887 24.5152 29.3553 21.3735C30.0102 19.6032 31.0131 18.0068 32.282 16.656C30.1432 14.2921 27.37 12.491 24.4023 11.7337C20.2988 10.6797 15.8677 11.2528 12.2349 13.4529C6.20745 17.0858 2.80998 24.331 2.30855 31.1668C1.55128 41.4616 5.77765 50.8046 13.4731 57.5893C15.9701 59.7895 22.8878 63.3097 26.8072 63.9442C26.4183 63.76 26.0294 63.5758 25.6508 63.3609C21.4961 61.0789 18.467 57.1493 17.1981 52.6057C16.2668 49.2594 16.4817 45.6061 17.546 42.3212C16.9525 42.096 16.3794 41.8402 15.8063 41.5332C13.2787 40.1824 11.1399 38.0641 9.85052 35.4955C8.11085 32.0162 8.33599 27.8308 10.3417 24.5152C11.7028 22.2536 13.8313 20.5446 16.3589 19.7567H16.3692H16.3794C18.4977 19.1631 20.6774 19.378 22.5399 20.5856C24.1567 21.6294 25.3233 23.2974 25.7941 25.1496C26.2853 27.0326 25.8657 28.9667 24.4433 30.3379C23.2971 31.4431 21.5575 32.0469 20.002 31.5352C18.7126 31.1157 17.9042 30.0514 17.5767 28.7722L17.3516 27.8922L19.1219 27.4317L19.3471 28.3117C19.521 28.9769 19.8894 29.5807 20.5751 29.8058C21.4756 30.1026 22.5296 29.6625 23.1846 29.0281C24.1363 28.1173 24.3614 26.8484 24.0339 25.5999C23.6655 24.1877 22.7855 22.9085 21.5472 22.1103C20.135 21.1996 18.4977 21.0563 16.8911 21.5066L16.9013 21.4861ZM32.149 37.1943C31.054 35.8332 30.1637 34.3085 29.5395 32.6916C28.6082 32.9372 27.6872 33.2647 26.8072 33.6945C26.316 33.9298 25.8452 34.1959 25.395 34.4927C23.0106 36.0584 21.1481 38.4325 19.9508 41.1239C21.4449 41.4411 23.0004 41.482 24.5456 41.216C27.5133 40.7145 30.133 39.2512 32.1592 37.1943H32.149ZM31.1768 53.7109C32.7937 55.1947 34.912 55.9929 37.1121 56.0338C40.3766 56.0952 43.5284 54.5193 45.3397 51.787C46.7212 49.7096 47.3762 47.1718 47.3045 44.6851C47.2841 44.1325 47.2329 43.5799 47.1408 43.0375C43.2214 43.5082 39.0872 42.7919 35.792 40.5508C34.912 39.9573 34.1035 39.2819 33.3667 38.5451C31.0949 40.8271 28.158 42.444 24.8424 43.0068C22.9697 43.324 21.0867 43.2626 19.2857 42.8431C18.3033 45.8721 18.1293 49.1673 18.948 52.1145C20.0839 56.1873 22.7957 59.7281 26.5206 61.7645C32.6913 65.1415 40.6836 64.4559 46.8645 61.478C56.1768 56.9855 62.1838 48.6556 64.2305 38.6167C64.8956 35.3523 64.4965 27.6261 63.0843 23.9216C63.1253 24.3514 63.1457 24.7812 63.156 25.211C63.2583 29.9388 61.3549 34.5234 58.0393 37.8901C55.6038 40.3666 52.3291 42.0039 48.9316 42.7407C49.034 43.365 49.0954 43.9994 49.1158 44.6339C49.2079 47.489 48.4404 50.4055 46.8543 52.7899C44.7053 56.0338 40.9599 57.927 37.0712 57.8554C34.431 57.8042 31.8829 56.832 29.9283 55.0412V55.0207C28.3524 53.4857 27.4519 51.5005 27.5644 49.2901C27.6668 47.3764 28.5264 45.5344 29.8976 44.1939C31.2894 42.8328 33.1825 42.2188 35.0859 42.7612C36.6209 43.2012 38.0127 44.3985 38.3504 46.0052C38.6267 47.3253 38.1048 48.5533 37.1633 49.4845L36.5084 50.119L35.2292 48.8193L35.8841 48.1849C36.3753 47.7039 36.713 47.0797 36.5698 46.3838C36.3753 45.4526 35.4646 44.7669 34.5947 44.5213C33.3258 44.1632 32.108 44.593 31.187 45.5037C30.1432 46.5271 29.4781 47.929 29.3962 49.3924C29.3143 51.0707 30.0102 52.5545 31.1973 53.7211L31.1768 53.7109ZM0.34375 33.5614C0.49725 36.8668 0.701917 39.8549 1.80712 43.0784C2.98395 46.5271 4.25288 49.5561 6.44282 52.5136C7.52755 53.9769 8.76579 55.6143 10.1166 56.832C10.5362 57.2107 10.9353 57.7223 11.6618 58.3363C11.8972 58.5308 11.9893 58.5512 12.2247 58.7457C16.5636 62.3887 21.0867 64.5377 26.6741 65.7862C30.6447 66.6765 32.9676 66.4923 36.9177 66.3081C39.4658 66.1853 44.3471 64.7424 46.711 63.6679C49.0954 62.5832 49.781 62.2148 51.9607 60.7412L56.9239 56.6171C57.0978 56.4329 57.2206 56.2897 57.3946 56.1055C57.7425 55.7166 58.0291 55.4096 58.377 55.031L59.6766 53.4039C61.6517 50.9786 63.1662 47.8983 64.2816 45.0228C65.0389 43.058 65.5199 41.0829 65.9394 38.8418C66.3795 36.5189 66.4306 34.2061 66.3078 31.5762C66.0827 26.7358 64.517 21.5577 62.1633 17.3723L60.5976 14.8549C60.3009 14.4558 60.045 14.0567 59.738 13.6371C59.431 13.2278 59.1957 12.931 58.8682 12.5319L57.9063 11.4165C55.8391 9.28796 54.8977 8.3772 52.5645 6.658L51.3467 5.8291C50.5485 5.28673 49.7298 4.80576 48.8498 4.34526C48.379 4.09966 48.0311 3.94616 47.5501 3.7108C45.2476 2.5749 42.7916 1.72553 40.1617 1.1934C33.029 -0.239269 25.968 0.610098 19.3982 3.57776C17.5972 4.39643 15.9291 5.43 14.2918 6.5352C13.8415 6.8422 13.5243 7.12873 13.115 7.43573C11.6414 8.5 10.2189 9.93266 8.99092 11.2835C8.66345 11.6416 8.36668 11.9384 8.04945 12.3068C5.76742 15.0084 3.51608 18.8971 2.35972 22.2434C2.18575 22.755 2.01178 23.1951 1.87875 23.676C1.20335 26.0809 0.83495 27.3907 0.548417 30.0616L0.415383 32.753C0.415383 32.927 0.415383 32.9986 0.40515 33.1009C0.394917 33.3363 0.353983 33.2544 0.364217 33.5512L0.34375 33.5614Z" fill="#FEC135"/>
  <path d="M211.11 26.8582H80.5837V27.5336H211.11V26.8582Z" fill="#FEC135"/>
  <path d="M211.11 66.2361H80.5837V66.9115H211.11V66.2361Z" fill="#FEC135"/>
  <path d="M83.6732 54.9902H83.9802C84.0416 54.9902 84.062 55.0209 84.062 55.0823V58.3263C84.062 58.6435 83.9699 58.8891 83.796 59.0631C83.622 59.2371 83.3764 59.3292 83.0694 59.3292H82.394C82.087 59.3292 81.8414 59.2371 81.6674 59.0631C81.4935 58.8891 81.4014 58.6435 81.4014 58.3263V57.743C81.4014 57.6816 81.4321 57.6509 81.4935 57.6509H81.8005C81.8619 57.6509 81.8926 57.6816 81.8926 57.743V58.3058C81.8926 58.6947 82.0768 58.8891 82.4554 58.8891H83.008C83.3866 58.8891 83.5708 58.6947 83.5708 58.3058V55.0823C83.5708 55.0209 83.6015 54.9902 83.6629 54.9902" fill="#FEC135"/>
  <path d="M85.5055 57.487H86.9586C86.9586 57.487 87.0302 57.4665 87.0302 57.4154V56.8935C87.0302 56.5046 86.8461 56.3102 86.4674 56.3102H86.0069C85.6283 56.3102 85.4441 56.5046 85.4441 56.8935V57.4154C85.4441 57.4154 85.4646 57.487 85.5157 57.487M87.3782 59.3188H85.9455C85.6385 59.3188 85.3929 59.2267 85.2189 59.0527C85.045 58.8787 84.9529 58.6331 84.9529 58.3159V56.873C84.9529 56.5558 85.045 56.3102 85.2189 56.1362C85.3929 55.9622 85.6385 55.8701 85.9455 55.8701H86.5083C86.8153 55.8701 87.061 55.9622 87.2349 56.1362C87.4089 56.3102 87.501 56.5558 87.501 56.873V57.7326C87.501 57.8042 87.4703 57.8349 87.4089 57.8349H85.5055C85.5055 57.8349 85.4338 57.8554 85.4338 57.8963V58.3057C85.4338 58.6945 85.618 58.889 85.9967 58.889H87.3679C87.4293 58.889 87.46 58.9197 87.46 58.9811V59.2267C87.46 59.2881 87.4293 59.3188 87.3679 59.3188H87.3782Z" fill="#FEC135"/>
  <path d="M89.4041 59.3185H88.9948C88.9334 59.3185 88.8925 59.2878 88.8822 59.2264L88.0226 55.9825C88.0124 55.9211 88.0226 55.8904 88.0943 55.8904H88.4422C88.5036 55.8904 88.5343 55.9211 88.5548 55.9825L89.2097 58.7353H89.2506L89.9465 55.9825C89.9567 55.9211 89.9977 55.8904 90.0591 55.8904H90.3661C90.4275 55.8904 90.4684 55.9211 90.4889 55.9825L91.1643 58.7353H91.2052L91.8704 55.9825C91.8806 55.9211 91.9216 55.8904 91.983 55.8904H92.3309C92.3923 55.8904 92.4127 55.9211 92.4025 55.9825L91.5429 59.2264C91.5327 59.2878 91.4918 59.3185 91.4304 59.3185H91.0108C90.9494 59.3185 90.9187 59.2878 90.9084 59.2264L90.2535 56.5453H90.2228L89.5781 59.2264C89.5679 59.2878 89.5269 59.3185 89.4655 59.3185" fill="#FEC135"/>
  <path d="M93.4466 57.487H94.8998C94.8998 57.487 94.9612 57.4665 94.9612 57.4154V56.8935C94.9612 56.5046 94.777 56.3102 94.3983 56.3102H93.9378C93.5592 56.3102 93.375 56.5046 93.375 56.8935V57.4154C93.375 57.4154 93.3955 57.487 93.4466 57.487ZM95.3193 59.3188H93.8867C93.5797 59.3188 93.3341 59.2267 93.1601 59.0527C92.9861 58.8787 92.894 58.6331 92.894 58.3159V56.873C92.894 56.5558 92.9861 56.3102 93.1601 56.1362C93.3341 55.9622 93.5797 55.8701 93.8867 55.8701H94.4495C94.7565 55.8701 95.0021 55.9622 95.1761 56.1362C95.35 56.3102 95.4421 56.5558 95.4421 56.873V57.7326C95.4421 57.8042 95.4114 57.8349 95.35 57.8349H93.4466C93.4466 57.8349 93.375 57.8554 93.375 57.8963V58.3057C93.375 58.6945 93.5592 58.889 93.9378 58.889H95.3091C95.3705 58.889 95.4012 58.9197 95.4012 58.9811V59.2267C95.4012 59.2881 95.3705 59.3188 95.3091 59.3188H95.3193Z" fill="#FEC135"/>
  <path d="M96.7011 59.3189H96.3941C96.3327 59.3189 96.302 59.2882 96.302 59.2268V54.6832C96.302 54.6218 96.3327 54.5911 96.3941 54.5911H96.7011C96.7625 54.5911 96.7932 54.6218 96.7932 54.6832V59.2268C96.7932 59.2882 96.7625 59.3189 96.7011 59.3189Z" fill="#FEC135"/>
  <path d="M98.1945 59.3189H97.8875C97.8261 59.3189 97.7954 59.2882 97.7954 59.2268V54.6832C97.7954 54.6218 97.8261 54.5911 97.8875 54.5911H98.1945C98.2559 54.5911 98.2866 54.6218 98.2866 54.6832V59.2268C98.2866 59.2882 98.2559 59.3189 98.1945 59.3189Z" fill="#FEC135"/>
  <path d="M99.7296 57.487H101.183C101.183 57.487 101.244 57.4665 101.244 57.4154V56.8935C101.244 56.5046 101.06 56.3102 100.681 56.3102H100.221C99.8422 56.3102 99.658 56.5046 99.658 56.8935V57.4154C99.658 57.4154 99.6784 57.487 99.7296 57.487ZM101.602 59.3188H100.17C99.8626 59.3188 99.617 59.2267 99.4431 59.0527C99.2691 58.8787 99.177 58.6331 99.177 58.3159V56.873C99.177 56.5558 99.2691 56.3102 99.4431 56.1362C99.617 55.9622 99.8626 55.8701 100.17 55.8701H100.732C101.039 55.8701 101.285 55.9622 101.459 56.1362C101.633 56.3102 101.725 56.5558 101.725 56.873V57.7326C101.725 57.8042 101.694 57.8349 101.633 57.8349H99.7296C99.7296 57.8349 99.658 57.8554 99.658 57.8963V58.3057C99.658 58.6945 99.8422 58.889 100.221 58.889H101.592C101.653 58.889 101.684 58.9197 101.684 58.9811V59.2267C101.684 59.2881 101.653 59.3188 101.592 59.3188H101.602Z" fill="#FEC135"/>
  <path d="M102.964 59.319H102.657C102.595 59.319 102.564 59.2883 102.564 59.2269V55.9829C102.564 55.9215 102.595 55.8908 102.657 55.8908H102.964C103.025 55.8908 103.056 55.9215 103.056 55.9829V56.249H103.086C103.127 56.1467 103.219 56.0648 103.342 55.9932C103.465 55.9215 103.618 55.8806 103.792 55.8806H104.059C104.12 55.8806 104.151 55.9113 104.151 55.9727V56.2183C104.151 56.2183 104.151 56.2695 104.13 56.2899C104.12 56.3104 104.089 56.3104 104.059 56.3104H103.69C103.485 56.3104 103.332 56.3718 103.23 56.4946C103.117 56.6174 103.066 56.7811 103.066 56.996V59.2269C103.066 59.2883 103.035 59.319 102.974 59.319" fill="#FEC135"/>
  <path d="M105.01 60.3828H104.713C104.652 60.3828 104.621 60.3521 104.621 60.2907V60.0451C104.621 59.9837 104.652 59.953 104.713 59.953H104.877C105.163 59.953 105.368 59.8712 105.481 59.7074C105.573 59.5744 105.665 59.3902 105.736 59.1446H105.542C105.491 59.1446 105.45 59.1139 105.429 59.0525L104.437 55.9927C104.416 55.9313 104.437 55.9006 104.508 55.9006H104.836C104.897 55.9006 104.928 55.9313 104.948 55.9927L105.818 58.766H105.849L106.719 55.9927C106.729 55.9313 106.77 55.9006 106.821 55.9006H107.128C107.2 55.9006 107.23 55.9313 107.21 56.003L106.207 59.206C106.095 59.5846 105.951 59.8814 105.777 60.0861C105.603 60.2907 105.347 60.3931 105.01 60.3931" fill="#FEC135"/>
  <path d="M108.305 58.408V58.9401C108.305 59.0425 108.274 59.1653 108.203 59.329L107.936 59.9635C107.936 59.9635 107.885 60.0146 107.855 60.0146C107.814 60.0146 107.783 59.9839 107.783 59.9225V58.3978C107.783 58.3364 107.814 58.3057 107.875 58.3057H108.223C108.284 58.3057 108.315 58.3364 108.315 58.3978" fill="#FEC135"/>
  <path d="M113.248 54.99H113.555C113.616 54.99 113.647 55.0207 113.647 55.0821V58.3261C113.647 58.6433 113.565 58.8889 113.381 59.0629C113.207 59.2368 112.961 59.3289 112.654 59.3289H111.907C111.6 59.3289 111.355 59.2368 111.181 59.0629C111.007 58.8889 110.915 58.6433 110.915 58.3261V55.0923C110.915 55.0309 110.945 55.0002 111.007 55.0002H111.314C111.375 55.0002 111.406 55.0309 111.406 55.0923V58.3158C111.406 58.7047 111.59 58.8991 111.969 58.8991H112.603C112.982 58.8991 113.166 58.7047 113.166 58.3158V55.0923C113.166 55.0309 113.197 55.0002 113.258 55.0002" fill="#FEC135"/>
  <path d="M114.732 56.3202H114.364C114.302 56.3202 114.271 56.2895 114.271 56.2281V55.9825C114.271 55.9211 114.302 55.8904 114.364 55.8904H114.732C114.732 55.8904 114.804 55.8699 114.804 55.829V55.2457C114.804 55.1843 114.834 55.1536 114.896 55.1536H115.203C115.264 55.1536 115.285 55.1843 115.285 55.2457V55.829C115.285 55.829 115.305 55.8904 115.356 55.8904H116.073C116.144 55.8904 116.175 55.9211 116.175 55.9825V56.2281C116.175 56.2895 116.144 56.3202 116.073 56.3202H115.356C115.356 56.3202 115.285 56.3406 115.285 56.3816V58.3157C115.285 58.6943 115.479 58.8887 115.878 58.8887H116.144C116.216 58.8887 116.247 58.9194 116.247 58.9808V59.2264C116.247 59.2878 116.216 59.3185 116.144 59.3185H115.817C115.51 59.3185 115.264 59.2367 115.08 59.0627C114.896 58.8887 114.804 58.6431 114.804 58.3361V56.3713C114.804 56.3713 114.783 56.3099 114.732 56.3099" fill="#FEC135"/>
  <path d="M117.443 57.487H118.897C118.897 57.487 118.968 57.4665 118.968 57.4154V56.8935C118.968 56.5046 118.784 56.3102 118.405 56.3102H117.945C117.566 56.3102 117.382 56.5046 117.382 56.8935V57.4154C117.382 57.4154 117.403 57.487 117.454 57.487M119.316 59.3188H117.884C117.577 59.3188 117.331 59.2267 117.157 59.0527C116.983 58.8787 116.891 58.6331 116.891 58.3159V56.873C116.891 56.5558 116.983 56.3102 117.157 56.1362C117.331 55.9622 117.577 55.8701 117.884 55.8701H118.446C118.753 55.8701 118.999 55.9622 119.173 56.1362C119.347 56.3102 119.439 56.5558 119.439 56.873V57.7326C119.439 57.8042 119.408 57.8349 119.347 57.8349H117.443C117.443 57.8349 117.372 57.8554 117.372 57.8963V58.3057C117.372 58.6945 117.556 58.889 117.935 58.889H119.306C119.367 58.889 119.398 58.9197 119.398 58.9811V59.2267C119.398 59.2881 119.367 59.3188 119.306 59.3188H119.316Z" fill="#FEC135"/>
  <path d="M120.667 59.3186H120.36C120.299 59.3186 120.268 59.2879 120.268 59.2264V55.9825C120.268 55.9211 120.299 55.8904 120.36 55.8904H120.667C120.728 55.8904 120.759 55.9211 120.759 55.9825V56.2485H120.79C120.902 56.0132 121.127 55.8904 121.475 55.8904H121.854C122.161 55.8904 122.396 55.9825 122.57 56.1564C122.744 56.3304 122.826 56.576 122.826 56.8932V59.2367C122.826 59.2981 122.795 59.3288 122.734 59.3288H122.427C122.366 59.3288 122.335 59.2981 122.335 59.2367V56.9137C122.335 56.5248 122.151 56.3304 121.772 56.3304H121.393C121.189 56.3304 121.035 56.3816 120.933 56.4941C120.831 56.5965 120.769 56.75 120.769 56.9546V59.2469C120.769 59.3083 120.739 59.339 120.677 59.339" fill="#FEC135"/>
  <path d="M124.883 59.3188H123.686C123.625 59.3188 123.594 59.2881 123.594 59.2267V58.9913C123.594 58.9299 123.625 58.8992 123.686 58.8992H124.822C125.17 58.8992 125.344 58.7662 125.344 58.5103V58.3773C125.344 58.1419 125.231 57.9782 125.006 57.8861L124.208 57.5484C123.973 57.4563 123.819 57.3437 123.717 57.2107C123.614 57.0879 123.563 56.9139 123.563 56.699C123.563 56.1464 123.87 55.8701 124.474 55.8701H125.579C125.641 55.8701 125.671 55.9008 125.671 55.9622V56.1976C125.671 56.259 125.641 56.2897 125.579 56.2897H124.566C124.402 56.2897 124.28 56.3204 124.198 56.392C124.116 56.4637 124.075 56.5353 124.075 56.6274V56.74C124.075 56.9344 124.208 57.0777 124.464 57.1698L125.262 57.5279C125.497 57.62 125.651 57.7326 125.733 57.8861C125.815 58.0294 125.855 58.234 125.855 58.5001C125.855 59.0425 125.538 59.3085 124.894 59.3085" fill="#FEC135"/>
  <path d="M126.664 59.2268V55.9828C126.664 55.9214 126.694 55.8907 126.756 55.8907H127.063C127.124 55.8907 127.155 55.9214 127.155 55.9828V59.2268C127.155 59.2882 127.124 59.3189 127.063 59.3189H126.756C126.694 59.3189 126.664 59.2882 126.664 59.2268ZM126.664 55.3176V54.6832C126.664 54.6218 126.694 54.5911 126.756 54.5911H127.063C127.124 54.5911 127.155 54.6218 127.155 54.6832V55.3176C127.155 55.379 127.124 55.4097 127.063 55.4097H126.756C126.694 55.4097 126.664 55.379 126.664 55.3176Z" fill="#FEC135"/>
  <path d="M128.557 59.3189H128.25C128.189 59.3189 128.158 59.2882 128.158 59.2268V54.6832C128.158 54.6218 128.189 54.5911 128.25 54.5911H128.557C128.618 54.5911 128.649 54.6218 128.649 54.6832V59.2268C128.649 59.2882 128.618 59.3189 128.557 59.3189Z" fill="#FEC135"/>
  <path d="M130.777 59.3188H129.58C129.519 59.3188 129.488 59.2881 129.488 59.2267V58.9913C129.488 58.9299 129.519 58.8992 129.58 58.8992H130.716C131.064 58.8992 131.238 58.7662 131.238 58.5103V58.3773C131.238 58.1419 131.125 57.9782 130.9 57.8861L130.102 57.5484C129.867 57.4563 129.703 57.3437 129.611 57.2107C129.508 57.0879 129.457 56.9139 129.457 56.699C129.457 56.1464 129.764 55.8701 130.368 55.8701H131.473C131.535 55.8701 131.565 55.9008 131.565 55.9622V56.1976C131.565 56.259 131.535 56.2897 131.473 56.2897H130.46C130.296 56.2897 130.174 56.3204 130.092 56.392C130.01 56.4637 129.969 56.5353 129.969 56.6274V56.74C129.969 56.9344 130.102 57.0777 130.358 57.1698L131.156 57.5279C131.391 57.62 131.545 57.7326 131.627 57.8861C131.709 58.0294 131.75 58.234 131.75 58.5001C131.75 59.0425 131.432 59.3085 130.788 59.3085" fill="#FEC135"/>
  <path d="M132.977 58.408V58.9401C132.977 59.0425 132.947 59.1653 132.875 59.329L132.609 59.9635C132.609 59.9635 132.558 60.0146 132.527 60.0146C132.486 60.0146 132.456 59.9839 132.456 59.9225V58.3978C132.456 58.3364 132.486 58.3057 132.548 58.3057H132.885C132.947 58.3057 132.977 58.3364 132.977 58.3978" fill="#FEC135"/>
  <path d="M136.007 59.3187H135.7C135.638 59.3187 135.608 59.288 135.608 59.2266V55.0821C135.608 55.0207 135.638 54.99 135.7 54.99H136.007C136.068 54.99 136.099 55.0207 136.099 55.0821V56.8525C136.099 56.8525 136.119 56.9139 136.16 56.9139H137.828C137.828 56.9139 137.9 56.8934 137.9 56.8525V55.0821C137.9 55.0207 137.931 54.99 137.992 54.99H138.299C138.36 54.99 138.391 55.0207 138.391 55.0821V59.2266C138.391 59.288 138.36 59.3187 138.299 59.3187H137.992C137.931 59.3187 137.9 59.288 137.9 59.2266V57.4051C137.9 57.4051 137.879 57.3437 137.828 57.3437H136.16C136.16 57.3437 136.099 57.3641 136.099 57.4051V59.2266C136.099 59.288 136.068 59.3187 136.007 59.3187Z" fill="#FEC135"/>
  <path d="M140.376 58.889H140.847C141.225 58.889 141.41 58.6945 141.41 58.3057V56.8935C141.41 56.5046 141.225 56.3102 140.847 56.3102H140.376C139.997 56.3102 139.813 56.5046 139.813 56.8935V58.3057C139.813 58.6945 139.997 58.889 140.376 58.889ZM140.908 59.3188H140.325C140.018 59.3188 139.772 59.2267 139.598 59.0527C139.424 58.8787 139.332 58.6331 139.332 58.3159V56.873C139.332 56.5558 139.424 56.3102 139.598 56.1362C139.772 55.9622 140.018 55.8701 140.325 55.8701H140.908C141.215 55.8701 141.461 55.9622 141.635 56.1362C141.809 56.3102 141.901 56.5558 141.901 56.873V58.3159C141.901 58.6331 141.809 58.8787 141.635 59.0527C141.461 59.2267 141.215 59.3188 140.908 59.3188Z" fill="#FEC135"/>
  <path d="M143.16 59.3186H142.853C142.791 59.3186 142.76 59.2879 142.76 59.2264V55.9825C142.76 55.9211 142.791 55.8904 142.853 55.8904H143.16C143.221 55.8904 143.252 55.9211 143.252 55.9825V56.2485H143.282C143.405 56.0132 143.641 55.8904 143.999 55.8904H144.244C144.643 55.8904 144.909 56.0439 145.063 56.3509C145.135 56.2076 145.247 56.0848 145.401 56.0132C145.554 55.9313 145.718 55.9006 145.892 55.9006H146.127C146.434 55.9006 146.67 55.9927 146.844 56.1667C147.018 56.3406 147.099 56.5862 147.099 56.9035V59.2469C147.099 59.3083 147.069 59.339 147.007 59.339H146.7C146.639 59.339 146.608 59.3083 146.608 59.2469V56.9239C146.608 56.5351 146.424 56.3407 146.045 56.3407H145.82C145.616 56.3407 145.462 56.402 145.35 56.5146C145.237 56.6272 145.186 56.7807 145.186 56.9853V59.2571C145.186 59.3185 145.155 59.3492 145.094 59.3492H144.787C144.725 59.3492 144.695 59.3185 144.695 59.2571V56.9342C144.695 56.5453 144.5 56.3509 144.132 56.3509H143.886C143.682 56.3509 143.528 56.402 143.426 56.5146C143.313 56.6169 143.262 56.7704 143.262 56.9751V59.2674C143.262 59.3288 143.231 59.3595 143.17 59.3595" fill="#FEC135"/>
  <path d="M148.481 57.487H149.934C149.934 57.487 150.006 57.4665 150.006 57.4154V56.8935C150.006 56.5046 149.822 56.3102 149.443 56.3102H148.982C148.604 56.3102 148.42 56.5046 148.42 56.8935V57.4154C148.42 57.4154 148.44 57.487 148.491 57.487M150.354 59.3188H148.921C148.614 59.3188 148.368 59.2267 148.195 59.0527C148.021 58.8787 147.928 58.6331 147.928 58.3159V56.873C147.928 56.5558 148.021 56.3102 148.195 56.1362C148.368 55.9622 148.614 55.8701 148.921 55.8701H149.484C149.791 55.8701 150.037 55.9622 150.21 56.1362C150.384 56.3102 150.477 56.5558 150.477 56.873V57.7326C150.477 57.8042 150.446 57.8349 150.384 57.8349H148.481C148.481 57.8349 148.409 57.8554 148.409 57.8963V58.3057C148.409 58.6945 148.594 58.889 148.972 58.889H150.344C150.405 58.889 150.436 58.9197 150.436 58.9811V59.2267C150.436 59.2881 150.405 59.3188 150.344 59.3188H150.354Z" fill="#FEC135"/>
  <path d="M153.086 59.2266V55.0821C153.086 55.0207 153.116 54.99 153.178 54.99H154.836C155.143 54.99 155.388 55.0821 155.562 55.2561C155.736 55.43 155.828 55.6756 155.828 55.9826V58.3158C155.828 58.6228 155.736 58.8684 155.562 59.0424C155.388 59.2164 155.143 59.3085 154.836 59.3085H153.178C153.116 59.3085 153.086 59.2778 153.086 59.2164M153.649 58.8889H154.784C155.163 58.8889 155.347 58.6945 155.347 58.3056V56.0133C155.347 55.6245 155.163 55.43 154.784 55.43H153.649C153.649 55.43 153.577 55.4505 153.577 55.4914V58.8377C153.577 58.8377 153.597 58.8991 153.649 58.8991V58.8889Z" fill="#FEC135"/>
  <path d="M157.251 57.487H158.704C158.704 57.487 158.776 57.4665 158.776 57.4154V56.8935C158.776 56.5046 158.592 56.3102 158.213 56.3102H157.753C157.374 56.3102 157.19 56.5046 157.19 56.8935V57.4154C157.19 57.4154 157.21 57.487 157.262 57.487M159.124 59.3188H157.691C157.384 59.3188 157.139 59.2267 156.965 59.0527C156.791 58.8787 156.699 58.6331 156.699 58.3159V56.873C156.699 56.5558 156.791 56.3102 156.965 56.1362C157.139 55.9622 157.384 55.8701 157.691 55.8701H158.254C158.561 55.8701 158.807 55.9622 158.981 56.1362C159.155 56.3102 159.247 56.5558 159.247 56.873V57.7326C159.247 57.8042 159.216 57.8349 159.155 57.8349H157.251C157.251 57.8349 157.18 57.8554 157.18 57.8963V58.3057C157.18 58.6945 157.364 58.889 157.743 58.889H159.114C159.175 58.889 159.206 58.9197 159.206 58.9811V59.2267C159.206 59.2881 159.175 59.3188 159.114 59.3188H159.124Z" fill="#FEC135"/>
  <path d="M162.082 58.9811V59.2267C162.082 59.2881 162.051 59.3188 161.989 59.3188H161.017C160.71 59.3188 160.465 59.2267 160.291 59.0527C160.117 58.8787 160.025 58.6331 160.025 58.3159V56.873C160.025 56.5558 160.117 56.3102 160.291 56.1362C160.465 55.9622 160.71 55.8701 161.017 55.8701H161.989C162.051 55.8701 162.082 55.9008 162.082 55.9622V56.2078C162.082 56.2692 162.051 56.2999 161.989 56.2999H161.068C160.7 56.2999 160.506 56.4944 160.506 56.8832V58.2852C160.506 58.6741 160.69 58.8685 161.068 58.8685H161.989C162.051 58.8685 162.082 58.8992 162.082 58.9606" fill="#FEC135"/>
  <path d="M163.749 58.889H164.22C164.599 58.889 164.783 58.6945 164.783 58.3057V56.8935C164.783 56.5046 164.599 56.3102 164.22 56.3102H163.749C163.371 56.3102 163.187 56.5046 163.187 56.8935V58.3057C163.187 58.6945 163.371 58.889 163.749 58.889ZM164.271 59.3188H163.688C163.381 59.3188 163.135 59.2267 162.961 59.0527C162.787 58.8787 162.695 58.6331 162.695 58.3159V56.873C162.695 56.5558 162.787 56.3102 162.961 56.1362C163.135 55.9622 163.381 55.8701 163.688 55.8701H164.271C164.578 55.8701 164.824 55.9622 164.998 56.1362C165.172 56.3102 165.264 56.5558 165.264 56.873V58.3159C165.264 58.6331 165.172 58.8787 164.998 59.0527C164.824 59.2267 164.578 59.3188 164.271 59.3188Z" fill="#FEC135"/>
  <path d="M166.533 59.319H166.226C166.165 59.319 166.134 59.2883 166.134 59.2269V55.9829C166.134 55.9215 166.165 55.8908 166.226 55.8908H166.533C166.594 55.8908 166.625 55.9215 166.625 55.9829V56.249H166.656C166.697 56.1467 166.789 56.0648 166.912 55.9932C167.034 55.9215 167.188 55.8806 167.362 55.8806H167.628C167.689 55.8806 167.72 55.9113 167.72 55.9727V56.2183C167.72 56.2183 167.72 56.2695 167.699 56.2899C167.689 56.3104 167.659 56.3104 167.628 56.3104H167.259C167.055 56.3104 166.901 56.3718 166.799 56.4946C166.686 56.6174 166.635 56.7811 166.635 56.996V59.2269C166.635 59.2883 166.605 59.319 166.543 59.319" fill="#FEC135"/>
  <path d="M168.764 58.408V58.9401C168.764 59.0425 168.733 59.1653 168.661 59.329L168.395 59.9635C168.395 59.9635 168.344 60.0146 168.313 60.0146C168.272 60.0146 168.242 59.9839 168.242 59.9225V58.3978C168.242 58.3364 168.272 58.3057 168.334 58.3057H168.682C168.743 58.3057 168.774 58.3364 168.774 58.3978" fill="#FEC135"/>
  <path d="M172.662 55.4914L171.967 57.8246H173.379L172.683 55.4914H172.652H172.662ZM171.445 59.3187H171.107C171.046 59.3187 171.025 59.288 171.046 59.2266L172.304 55.0821C172.325 55.0207 172.366 54.99 172.437 54.99H172.918C172.99 54.99 173.031 55.0207 173.041 55.0821L174.3 59.2266C174.32 59.288 174.3 59.3187 174.238 59.3187H173.89C173.89 59.3187 173.809 59.288 173.798 59.2266L173.481 58.2442H171.854L171.537 59.2266C171.516 59.288 171.486 59.3187 171.434 59.3187H171.445Z" fill="#FEC135"/>
  <path d="M175.365 59.319H175.058C174.996 59.319 174.966 59.2883 174.966 59.2269V55.9829C174.966 55.9215 174.996 55.8908 175.058 55.8908H175.365C175.426 55.8908 175.457 55.9215 175.457 55.9829V56.249H175.487C175.528 56.1467 175.621 56.0648 175.743 55.9932C175.866 55.9215 176.02 55.8806 176.194 55.8806H176.46C176.521 55.8806 176.552 55.9113 176.552 55.9727V56.2183C176.552 56.2183 176.552 56.2695 176.531 56.2899C176.521 56.3104 176.49 56.3104 176.46 56.3104H176.091C175.887 56.3104 175.733 56.3718 175.631 56.4946C175.528 56.6174 175.467 56.7811 175.467 56.996V59.2269C175.467 59.2883 175.436 59.319 175.375 59.319" fill="#FEC135"/>
  <path d="M177.268 56.3202H176.899C176.838 56.3202 176.807 56.2895 176.807 56.2281V55.9825C176.807 55.9211 176.838 55.8904 176.899 55.8904H177.268C177.268 55.8904 177.339 55.8699 177.339 55.829V55.2457C177.339 55.1843 177.37 55.1536 177.431 55.1536H177.738C177.8 55.1536 177.82 55.1843 177.82 55.2457V55.829C177.82 55.829 177.851 55.8904 177.892 55.8904H178.608C178.68 55.8904 178.711 55.9211 178.711 55.9825V56.2281C178.711 56.2895 178.68 56.3202 178.608 56.3202H177.892C177.892 56.3202 177.82 56.3406 177.82 56.3816V58.3157C177.82 58.6943 178.015 58.8887 178.414 58.8887H178.68C178.751 58.8887 178.782 58.9194 178.782 58.9808V59.2264C178.782 59.2878 178.751 59.3185 178.68 59.3185H178.352C178.045 59.3185 177.8 59.2367 177.616 59.0627C177.431 58.8887 177.339 58.6431 177.339 58.3361V56.3713C177.339 56.3713 177.319 56.3099 177.268 56.3099" fill="#FEC135"/>
  <path d="M179.519 59.2268V55.9828C179.519 55.9214 179.549 55.8907 179.611 55.8907H179.918C179.979 55.8907 180.01 55.9214 180.01 55.9828V59.2268C180.01 59.2882 179.979 59.3189 179.918 59.3189H179.611C179.549 59.3189 179.519 59.2882 179.519 59.2268ZM179.519 55.3176V54.6832C179.519 54.6218 179.549 54.5911 179.611 54.5911H179.918C179.979 54.5911 180.01 54.6218 180.01 54.6832V55.3176C180.01 55.379 179.979 55.4097 179.918 55.4097H179.611C179.549 55.4097 179.519 55.379 179.519 55.3176Z" fill="#FEC135"/>
  <path d="M182.978 58.9811V59.2267C182.978 59.2881 182.947 59.3188 182.886 59.3188H181.914C181.607 59.3188 181.361 59.2267 181.187 59.0527C181.013 58.8787 180.921 58.6331 180.921 58.3159V56.873C180.921 56.5558 181.013 56.3102 181.187 56.1362C181.361 55.9622 181.607 55.8701 181.914 55.8701H182.886C182.947 55.8701 182.978 55.9008 182.978 55.9622V56.2078C182.978 56.2692 182.947 56.2999 182.886 56.2999H181.965C181.597 56.2999 181.402 56.4944 181.402 56.8832V58.2852C181.402 58.6741 181.586 58.8685 181.965 58.8685H182.886C182.947 58.8685 182.978 58.8992 182.978 58.9606" fill="#FEC135"/>
  <path d="M184.093 59.3189H183.786C183.725 59.3189 183.694 59.2882 183.694 59.2268V54.6832C183.694 54.6218 183.725 54.5911 183.786 54.5911H184.093C184.155 54.5911 184.185 54.6218 184.185 54.6832V59.2268C184.185 59.2882 184.155 59.3189 184.093 59.3189Z" fill="#FEC135"/>
  <path d="M185.638 57.487H187.091C187.091 57.487 187.162 57.4665 187.162 57.4154V56.8935C187.162 56.5046 186.978 56.3102 186.599 56.3102H186.139C185.76 56.3102 185.576 56.5046 185.576 56.8935V57.4154C185.576 57.4154 185.597 57.487 185.648 57.487M187.51 59.3188H186.078C185.771 59.3188 185.525 59.2267 185.351 59.0527C185.177 58.8787 185.085 58.6331 185.085 58.3159V56.873C185.085 56.5558 185.177 56.3102 185.351 56.1362C185.525 55.9622 185.771 55.8701 186.078 55.8701H186.64C186.947 55.8701 187.193 55.9622 187.367 56.1362C187.541 56.3102 187.633 56.5558 187.633 56.873V57.7326C187.633 57.8042 187.602 57.8349 187.541 57.8349H185.638C185.638 57.8349 185.566 57.8554 185.566 57.8963V58.3057C185.566 58.6945 185.75 58.889 186.129 58.889H187.5C187.561 58.889 187.592 58.9197 187.592 58.9811V59.2267C187.592 59.2881 187.561 59.3188 187.5 59.3188H187.51Z" fill="#FEC135"/>
  <path d="M189.629 59.3188H188.432C188.37 59.3188 188.34 59.2881 188.34 59.2267V58.9913C188.34 58.9299 188.37 58.8992 188.432 58.8992H189.568C189.915 58.8992 190.089 58.7662 190.089 58.5103V58.3773C190.089 58.1419 189.977 57.9782 189.741 57.8861L188.943 57.5484C188.718 57.4563 188.554 57.3437 188.452 57.2107C188.35 57.0879 188.299 56.9139 188.299 56.699C188.299 56.1464 188.606 55.8701 189.209 55.8701H190.315C190.376 55.8701 190.407 55.9008 190.407 55.9622V56.1976C190.407 56.259 190.376 56.2897 190.315 56.2897H189.301C189.138 56.2897 189.015 56.3204 188.933 56.392C188.851 56.4637 188.81 56.5353 188.81 56.6274V56.74C188.81 56.9344 188.933 57.0777 189.199 57.1698L189.997 57.5279C190.233 57.62 190.386 57.7326 190.468 57.8861C190.55 58.0294 190.591 58.234 190.591 58.5001C190.591 59.0425 190.274 59.3085 189.629 59.3085" fill="#FEC135"/>
  <path d="M194.541 59.3189H194.04C193.733 59.3189 193.487 59.237 193.313 59.0631C193.139 58.8891 193.047 58.6435 193.047 58.3365V57.8146C193.047 57.5895 193.109 57.395 193.221 57.2211C193.334 57.0471 193.518 56.9652 193.743 56.9448C193.549 56.7094 193.446 56.4433 193.446 56.1568V55.9624C193.446 55.6554 193.539 55.4098 193.723 55.2358C193.907 55.0618 194.153 54.98 194.46 54.98H194.644C194.951 54.98 195.196 55.0618 195.37 55.2358C195.544 55.4098 195.636 55.6554 195.636 55.9624V56.2489C195.636 56.3205 195.606 56.3512 195.544 56.3512H195.237C195.176 56.3512 195.145 56.3205 195.145 56.2489V55.9726C195.145 55.594 194.961 55.3995 194.603 55.3995H194.49C194.122 55.3995 193.927 55.594 193.927 55.9726V56.167C193.927 56.3922 194.03 56.6071 194.224 56.8322L194.613 57.2825H196.189C196.261 57.2825 196.291 57.3132 196.291 57.3746V57.6202C196.291 57.6816 196.261 57.7123 196.189 57.7123H194.971L196.281 59.237C196.281 59.237 196.302 59.2677 196.291 59.278C196.291 59.2984 196.271 59.3087 196.25 59.3087H195.862C195.8 59.3087 195.749 59.2882 195.708 59.237L195.34 58.8072C195.227 59.1347 194.951 59.2984 194.511 59.2984M194.101 58.8891H194.552C194.848 58.8891 195.022 58.7561 195.074 58.4798L194.02 57.2518C193.692 57.2722 193.539 57.4667 193.539 57.8555V58.3263C193.539 58.7049 193.733 58.8891 194.122 58.8891H194.101Z" fill="#FEC135"/>
  <path d="M199.463 55.0821V59.2266C199.463 59.288 199.433 59.3187 199.371 59.3187H199.064C199.003 59.3187 198.972 59.288 198.972 59.2266V55.0821C198.972 55.0207 199.003 54.99 199.064 54.99H199.371C199.433 54.99 199.463 55.0207 199.463 55.0821Z" fill="#FEC135"/>
  <path d="M202.513 58.275V56.9447C202.513 56.7503 202.462 56.5968 202.349 56.4842C202.237 56.3716 202.083 56.3205 201.889 56.3205H201.479C201.111 56.3205 200.916 56.5149 200.916 56.9038V58.3057C200.916 58.6946 201.101 58.889 201.479 58.889H201.889C202.093 58.889 202.247 58.8379 202.349 58.7253C202.462 58.6127 202.513 58.4592 202.513 58.2648M201.786 59.3188H201.387C201.08 59.3188 200.845 59.2267 200.671 59.0528C200.497 58.8788 200.415 58.6332 200.415 58.316V56.8731C200.415 56.5558 200.497 56.3102 200.671 56.1363C200.845 55.9623 201.08 55.8702 201.387 55.8702H201.786C202.134 55.8702 202.37 55.993 202.482 56.2284H202.513V54.6627C202.513 54.6013 202.544 54.5706 202.605 54.5706H202.912C202.973 54.5706 203.004 54.6013 203.004 54.6627V59.2063C203.004 59.2677 202.973 59.2984 202.912 59.2984H202.605C202.544 59.2984 202.513 59.2677 202.513 59.2063V58.9402H202.482C202.37 59.1756 202.134 59.2984 201.786 59.2984V59.3188Z" fill="#FEC135"/>
  <path d="M204.908 58.889H205.379C205.757 58.889 205.942 58.6945 205.942 58.3057V56.8935C205.942 56.5046 205.757 56.3102 205.379 56.3102H204.908C204.529 56.3102 204.345 56.5046 204.345 56.8935V58.3057C204.345 58.6945 204.529 58.889 204.908 58.889ZM205.43 59.3188H204.847C204.54 59.3188 204.294 59.2267 204.12 59.0527C203.946 58.8787 203.854 58.6331 203.854 58.3159V56.873C203.854 56.5558 203.946 56.3102 204.12 56.1362C204.294 55.9622 204.54 55.8701 204.847 55.8701H205.43C205.737 55.8701 205.983 55.9622 206.157 56.1362C206.33 56.3102 206.423 56.5558 206.423 56.873V58.3159C206.423 58.6331 206.33 58.8787 206.157 59.0527C205.983 59.2267 205.737 59.3188 205.43 59.3188Z" fill="#FEC135"/>
  <path d="M207.722 59.3189H207.415C207.353 59.3189 207.323 59.2882 207.323 59.2268V54.6832C207.323 54.6218 207.353 54.5911 207.415 54.5911H207.722C207.783 54.5911 207.814 54.6218 207.814 54.6832V59.2268C207.814 59.2882 207.783 59.3189 207.722 59.3189Z" fill="#FEC135"/>
  <path d="M209.942 59.3188H208.745C208.683 59.3188 208.653 59.2881 208.653 59.2267V58.9913C208.653 58.9299 208.683 58.8992 208.745 58.8992H209.881C210.229 58.8992 210.403 58.7662 210.403 58.5103V58.3773C210.403 58.1419 210.29 57.9782 210.055 57.8861L209.257 57.5484C209.031 57.4563 208.868 57.3437 208.765 57.2107C208.663 57.0879 208.622 56.9139 208.622 56.699C208.622 56.1464 208.929 55.8701 209.533 55.8701H210.638C210.699 55.8701 210.73 55.9008 210.73 55.9622V56.1976C210.73 56.259 210.699 56.2897 210.638 56.2897H209.625C209.461 56.2897 209.338 56.3204 209.257 56.392C209.175 56.4637 209.134 56.5353 209.134 56.6274V56.74C209.134 56.9344 209.267 57.0777 209.523 57.1698L210.321 57.5279C210.556 57.62 210.71 57.7326 210.792 57.8861C210.873 58.0294 210.914 58.234 210.914 58.5001C210.914 59.0425 210.597 59.3085 209.952 59.3085" fill="#FEC135"/>
  <path d="M93.9992 10.8122H84.7483V15.7037H95.2886V19.1319H80.8596V0.0876465H94.8281V3.46465H84.7483V7.50681H93.9992V10.8122Z" fill="#FEC135"/>
  <path d="M102.564 19.1319H98.8599V0.0876465H104.652L108.111 15.059L111.549 0.0876465H117.27V19.1319H113.565V6.24811C113.565 5.87971 113.565 5.35781 113.575 4.69265C113.586 4.02748 113.586 3.50558 113.586 3.14741L109.983 19.1319H106.115L102.534 3.14741C102.534 3.50558 102.534 4.02748 102.544 4.69265C102.544 5.35781 102.554 5.87971 102.554 6.24811V19.1319H102.564Z" fill="#FEC135"/>
  <path d="M134.748 10.8122H125.497V15.7037H136.038V19.1319H121.609V0.0876465H135.577V3.46465H125.497V7.50681H134.748V10.8122Z" fill="#FEC135"/>
  <path d="M147.755 11.6615H143.651V19.1319H139.763V0.0876465H149.106C150.436 0.118346 151.47 0.28208 152.186 0.578847C152.902 0.875613 153.516 1.32588 154.018 1.90918C154.427 2.39015 154.755 2.92228 155 3.51581C155.246 4.10935 155.358 4.76428 155.358 5.52155C155.358 6.42208 155.133 7.31238 154.673 8.19245C154.212 9.06228 153.465 9.68651 152.411 10.0447C153.291 10.4028 153.915 10.9043 154.274 11.549C154.642 12.2039 154.826 13.1965 154.826 14.5269V15.806C154.826 16.6759 154.857 17.2694 154.928 17.5764C155.031 18.0676 155.276 18.4258 155.655 18.6611V19.1421H151.275C151.152 18.7226 151.071 18.3849 151.019 18.1188C150.917 17.5867 150.856 17.034 150.856 16.4815L150.825 14.7111C150.804 13.4933 150.59 12.6849 150.16 12.2858C149.73 11.8764 148.932 11.682 147.765 11.682L147.755 11.6615ZM150.18 8.20268C150.968 7.84451 151.367 7.12818 151.367 6.05368C151.367 4.89731 150.989 4.11958 150.221 3.73071C149.791 3.50558 149.147 3.39301 148.287 3.39301H143.662V8.50968H148.174C149.075 8.50968 149.74 8.40735 150.19 8.20268H150.18Z" fill="#FEC135"/>
  <path d="M170.463 15.2125H163.443L162.122 19.1319H157.958L164.752 0.0876465H169.245L175.989 19.1319H171.67L170.442 15.2125H170.463ZM169.347 11.9378L166.973 4.44705L164.517 11.9378H169.347Z" fill="#FEC135"/>
  <path d="M178.947 0.0876465H182.928V15.7037H192.363V19.1319H178.957V0.0876465H178.947Z" fill="#FEC135"/>
  <path d="M203.843 19.1319H195.636V0.0876465H203.843C205.02 0.108113 206.003 0.241147 206.791 0.49698C208.121 0.937013 209.206 1.74545 210.035 2.91205C210.7 3.86375 211.15 4.88708 211.396 5.98205C211.641 7.08725 211.754 8.13105 211.754 9.13391C211.754 11.6615 211.242 13.8105 210.229 15.5707C208.847 17.9346 206.719 19.1216 203.843 19.1216V19.1319ZM206.801 4.94848C206.187 3.91491 204.979 3.40325 203.168 3.40325H199.494V15.8265H203.168C205.041 15.8265 206.351 14.9055 207.098 13.0533C207.507 12.0402 207.701 10.8224 207.701 9.42045C207.701 7.48635 207.394 5.99228 206.801 4.94848Z" fill="#FEC135"/>
  <path d="M86.7031 46.1689C87.3478 46.1689 87.8697 46.0973 88.2688 45.954C89.0261 45.6777 89.4149 45.1763 89.4149 44.4395C89.4149 44.0097 89.2307 43.672 88.8521 43.4366C88.4735 43.2115 87.8799 43.0068 87.0715 42.8226L85.69 42.5156C84.329 42.2086 83.3977 41.8709 82.8758 41.5127C81.9958 40.909 81.5557 39.9675 81.5557 38.6883C81.5557 37.5217 81.9855 36.5496 82.8349 35.7718C83.6843 34.9941 84.9327 34.6155 86.5803 34.6155C87.9516 34.6155 89.1284 34.9839 90.1006 35.7104C91.0727 36.437 91.5844 37.5013 91.6253 38.8828H89.0056C88.9544 38.0948 88.6167 37.5422 87.9823 37.2045C87.5525 36.9896 87.0306 36.877 86.3961 36.877C85.69 36.877 85.1374 37.0203 84.7178 37.3068C84.2983 37.5934 84.0936 37.9822 84.0936 38.4939C84.0936 38.9646 84.2983 39.3126 84.7178 39.5377C84.9839 39.6912 85.5467 39.8754 86.4166 40.0801L88.6679 40.6224C89.6503 40.8578 90.3973 41.175 90.8988 41.5741C91.6765 42.1881 92.0654 43.0784 92.0654 44.2348C92.0654 45.3912 91.6049 46.4145 90.6941 47.2025C89.7833 47.9904 88.4939 48.3895 86.8259 48.3895C85.1579 48.3895 83.7866 48.0007 82.8144 47.2229C81.8423 46.4452 81.3511 45.3809 81.3511 44.0199H83.9503C84.0322 44.6134 84.1959 45.0637 84.4415 45.3605C84.8816 45.9028 85.6388 46.1689 86.7133 46.1689H86.7031Z" fill="#FEC135"/>
  <path d="M107.446 35.0042H110.158V48.0517H107.446V35.0042Z" fill="#FEC135"/>
  <path d="M126.306 35.0042H129.038V45.7082H135.506V48.0517H126.316V35.0042H126.306Z" fill="#FEC135"/>
  <path d="M148.676 35.0042H151.593L154.427 44.91L157.283 35.0042H160.117L155.666 48.0517H153.087L148.676 35.0042Z" fill="#FEC135"/>
  <path d="M184.431 42.3517H178.086V45.7082H185.311V48.0517H175.416V35.0042H184.984V37.3169H178.076V40.0901H184.421V42.3517H184.431Z" fill="#FEC135"/>
  <path d="M206.587 42.935H203.772V48.0517H201.112V35.0042H207.518C208.429 35.0246 209.135 35.1372 209.626 35.3419C210.117 35.5465 210.537 35.8535 210.874 36.2526C211.161 36.5801 211.386 36.9485 211.55 37.3476C211.714 37.7467 211.795 38.2072 211.795 38.7189C211.795 39.3431 211.642 39.9469 211.325 40.5506C211.007 41.1544 210.496 41.574 209.779 41.8196C210.383 42.0652 210.803 42.4029 211.059 42.8531C211.314 43.3034 211.437 43.9788 211.437 44.8896V45.7696C211.437 46.3632 211.458 46.7725 211.509 46.9874C211.581 47.3251 211.744 47.5707 212 47.7344V48.0619H209.002C208.92 47.7754 208.858 47.54 208.828 47.366C208.756 46.9976 208.715 46.6292 208.715 46.2404L208.695 45.0226C208.684 44.1937 208.531 43.6309 208.234 43.3546C207.937 43.0783 207.395 42.935 206.587 42.935ZM208.234 40.5609C208.777 40.3153 209.053 39.8241 209.053 39.0873C209.053 38.2993 208.787 37.7672 208.265 37.4909C207.968 37.3374 207.528 37.2657 206.935 37.2657H203.762V40.7758H206.853C207.467 40.7758 207.927 40.7041 208.234 40.5609Z" fill="#FEC135"/>
</svg>